<?xml version="1.0" encoding="utf-8"?>
<svg xmlns="http://www.w3.org/2000/svg" viewBox="0 0 1100 550" style="background-color: white; font-family: monospace; font-size: 11px;">
  <style>
        .box { fill: white; stroke: black; stroke-width: 1.5; rx: 4px; ry: 4px; }
        .wire { fill: none; stroke: black; stroke-width: 1.5; }
        .bus { fill: none; stroke: black; stroke-width: 3.5; }
        .text-bold { font-weight: bold; font-size: 12px; }
        .text-small { font-size: 10px; fill: #444; }
        .alert-text { fill: #d00; font-weight: bold; }
    </style>
  <text x="15" y="20" class="text-small" style="white-space: pre;">Lab 1 - Architecture: 8-Lap Stopwatch (Compact Routing)</text>
  <text x="15" y="32" class="text-small" style="white-space: pre;">Format: MM.SS.hh | Target: Nexys A7 FPGA (100 MHz)</text>
  <rect class="box" x="120" y="40" width="880" height="470"/>
  <text x="130" y="55" class="text-bold" style="white-space: pre;">stopwatch_top</text>
  <path class="wire" d="M 120 60 L 960 60"/>
  <text x="75.963" y="63.765" class="text-bold" style="white-space: pre; font-size: 12px;">clk</text>
  <path class="wire" d="M 100 60 L 120 60"/>
  <path class="wire" stroke-dasharray="4,4" d="M 120 490 L 960 490"/>
  <path class="wire" stroke-dasharray="4,4" d="M 140 70 L 140 490"/>
  <text x="77" y="493" class="text-bold" style="white-space: pre; font-size: 12px;">rst</text>
  <path class="wire" stroke-dasharray="4,4" d="M 100 490 L 120 490"/>
  <rect class="box" x="160" y="90" width="90" height="40"/>
  <text x="170" y="105" class="text-bold" style="white-space: pre;">debounce</text>
  <text x="170" y="118" class="text-small" style="white-space: pre;">(start/stop)</text>
  <rect class="box" x="160" y="160" width="90" height="40"/>
  <text x="170" y="175" class="text-bold" style="white-space: pre;">debounce</text>
  <text x="170" y="188" class="text-small" style="white-space: pre;">(lap_save)</text>
  <rect class="box" x="160" y="230" width="90" height="40"/>
  <text x="170" y="245" class="text-bold" style="white-space: pre;">debounce</text>
  <text x="170" y="258" class="text-small" style="white-space: pre;">(up)</text>
  <rect class="box" x="160" y="300" width="90" height="40"/>
  <text x="170" y="315" class="text-bold" style="white-space: pre;">debounce</text>
  <text x="170" y="328" class="text-small" style="white-space: pre;">(down)</text>
  <rect class="box" x="160" y="390" width="90" height="40"/>
  <text x="180" y="405" class="text-bold" style="white-space: pre;">clk_en</text>
  <text x="170" y="418" class="text-small" style="white-space: pre;">(10ms tick)</text>
  <rect class="box" x="320" y="150" width="110" height="100"/>
  <text x="345" y="168" class="text-bold" style="white-space: pre;">ctrl_fsm</text>
  <text x="325" y="190" class="text-small" style="white-space: pre;">- Tracks run_st</text>
  <text x="325" y="210" class="text-small" style="white-space: pre;">- Handles Up/Dn</text>
  <text x="325" y="230" class="text-small" style="white-space: pre;">- Gen lap_ptr</text>
  <path class="box" d="M 330 390 L 345 390 Q 360 390 360 405 Q 360 420 345 420 L 330 420 Z"/>
  <text x="333" y="408" class="text-small" style="white-space: pre;">AND</text>
  <rect class="box" x="460" y="370" width="140" height="70"/>
  <text x="475" y="388" class="text-bold" style="white-space: pre;">bcd_counters</text>
  <text x="475" y="408" class="text-small" style="white-space: pre;">MM.SS.hh</text>
  <text x="465" y="423" class="text-small" style="white-space: pre;">(10/6/10/6/10/10)</text>
  <rect class="box" x="520" y="150" width="120" height="80"/>
  <text x="535" y="168" class="text-bold" style="white-space: pre;">lap_memory</text>
  <text x="535" y="188" class="text-small" style="white-space: pre;">Array: 8x24b</text>
  <text x="535" y="208" class="text-small" style="white-space: pre;">Store on WE</text>
  <polygon class="box" points="720,230 760,250 760,290 720,310"/>
  <text x="730" y="275" class="text-bold" style="white-space: pre;">MUX</text>
  <rect class="box" x="820" y="210" width="140" height="110"/>
  <text x="835" y="228" class="text-bold" style="white-space: pre;">display_driver</text>
  <text x="825" y="250" class="text-small" style="white-space: pre;">Dig 7: 'L' (ptr&gt;0)</text>
  <text x="825" y="265" class="text-small" style="white-space: pre;">Dig 6: ptr (ptr&gt;0)</text>
  <text x="825" y="280" class="text-small" style="white-space: pre;">Dig 5-0: disp_data</text>
  <text x="825" y="300" class="text-small" style="white-space: pre;">DP: Dig 2 &amp; 4</text>
  <text x="60" y="103" style="white-space: pre;">btn_start</text>
  <path class="wire" d="M 120 100 L 160 100"/>
  <text x="70" y="173" style="white-space: pre;">btn_lap</text>
  <path class="wire" d="M 120 170 L 160 170"/>
  <text x="75" y="243" style="white-space: pre;">btn_up</text>
  <path class="wire" d="M 120 240 L 160 240"/>
  <text x="65" y="313" style="white-space: pre;">btn_down</text>
  <path class="wire" d="M 120 310 L 160 310"/>
  <path class="bus" d="M 960 250 L 1000 250"/>
  <text x="1005" y="253" style="white-space: pre;">seg(6:0)</text>
  <line class="wire" x1="970" y1="255" x2="980" y2="245"/>
  <text x="972" y="243" class="text-small" style="white-space: pre;">7</text>
  <path class="bus" d="M 960 280 L 1000 280"/>
  <text x="1005" y="283" style="white-space: pre;">an(7:0)</text>
  <line class="wire" x1="970" y1="285" x2="980" y2="275"/>
  <text x="972" y="273" class="text-small" style="white-space: pre;">8</text>
  <path class="wire" d="M 960 310 L 1000 310"/>
  <text x="1005" y="313" style="white-space: pre;">dp</text>
  <path class="wire" d="M 200 60 L 200 90"/>
  <path class="wire" d="M 267.953 60.042 L 268.017 393.32 L 249.964 393.463" style=""/>
  <path class="wire" d="M 370 60 L 370 150"/>
  <path class="wire" d="M 480 60 L 480 370"/>
  <path class="wire" d="M 580 60 L 580 150"/>
  <path class="wire" d="M 890 60 L 890 210"/>
  <circle cx="200" cy="60" r="2.5"/>
  <circle cx="241" cy="60" r="2.5"/>
  <circle cx="255" cy="60" r="2.5"/>
  <circle cx="261.038" cy="59.641" r="2.5"/>
  <circle cx="267.98" cy="59.53" r="2.5"/>
  <circle cx="370" cy="60" r="2.5"/>
  <circle cx="480" cy="60" r="2.5"/>
  <circle cx="580" cy="60" r="2.5"/>
  <circle cx="890" cy="60" r="2.5"/>
  <path class="wire" stroke-dasharray="4,4" d="M 140 120 L 160 120"/>
  <path class="wire" stroke-dasharray="4,4" d="M 140 190 L 160 190"/>
  <path class="wire" stroke-dasharray="4,4" d="M 140 260 L 160 260"/>
  <path class="wire" stroke-dasharray="4,4" d="M 140 330 L 160 330"/>
  <path class="wire" stroke-dasharray="4,4" d="M 140 420 L 160 420"/>
  <circle cx="140" cy="120" r="2.5"/>
  <circle cx="140" cy="190" r="2.5"/>
  <circle cx="140" cy="260" r="2.5"/>
  <circle cx="140" cy="330" r="2.5"/>
  <circle cx="140" cy="420" r="2.5"/>
  <path class="wire" stroke-dasharray="4,4" d="M 370 490 L 370 250"/>
  <path class="wire" stroke-dasharray="4,4" d="M 520 490 L 520 440"/>
  <path class="wire" stroke-dasharray="4,4" d="M 620 490 L 620 230"/>
  <path class="wire" stroke-dasharray="4,4" d="M 890 490 L 890 320"/>
  <circle cx="370" cy="490" r="2.5"/>
  <circle cx="520" cy="490" r="2.5"/>
  <circle cx="620" cy="490" r="2.5"/>
  <circle cx="890" cy="490" r="2.5"/>
  <path class="wire" d="M 250 110 L 290 110 L 290 170 L 320 170"/>
  <path class="wire" d="M 250 180 L 300 180 L 300 190 L 320 190"/>
  <path class="wire" d="M 250 250 L 300 250 L 300 210 L 320 210"/>
  <path class="wire" d="M 250 320 L 290 320 L 290 230 L 320 230"/>
  <path class="wire" d="M 250 410 L 330 410"/>
  <text x="260" y="405" class="text-small" style="white-space: pre;">ce</text>
  <path class="wire" d="M 430 240 L 445 240 L 445 340 L 310 340 L 310 395 L 330 395"/>
  <text x="373" y="335" class="text-small" style="white-space: pre; font-size: 10px;">sig_run</text>
  <path class="wire" d="M 360 405 L 460 405"/>
  <text x="380" y="400" class="text-small" style="white-space: pre;">cnt_en</text>
  <path class="bus" d="M 430 160 L 450 160 L 450 120 L 860 120"/>
  <text x="483" y="115" class="text-small" style="white-space: pre; font-size: 10px;">lap_ptr (4b)</text>
  <path class="wire" d="M 580 120 L 580 150"/>
  <path class="wire" d="M 740 120 L 740 235"/>
  <path class="wire" d="M 860 120 L 860 210"/>
  <circle cx="580" cy="120" r="3"/>
  <circle cx="740" cy="120" r="3"/>
  <path class="wire" d="M 430 190 L 520 190"/>
  <text x="450" y="185" class="text-small" style="white-space: pre;">lap_we</text>
  <path class="bus" d="M 600 405 L 680 405 L 680 290 L 720 290"/>
  <path class="bus" d="M 678.558 291.258 L 579.784 292.231 L 580 230"/>
  <circle cx="680" cy="260" r="0"/>
  <text x="623" y="401" class="text-small" style="white-space: pre; font-size: 10px;">cnt_data</text>
  <line class="wire" x1="605" y1="415" x2="615" y2="395"/>
  <text x="607" y="393" class="text-small" style="white-space: pre; font-size: 10px;">24</text>
  <text x="590" y="255" class="text-small" style="white-space: pre;">d_in</text>
  <path class="bus" d="M 640 190 L 700 190 L 700 250 L 720 250"/>
  <text x="656" y="185" class="text-small" style="white-space: pre; font-size: 10px;">lap_data</text>
  <line class="wire" x1="644" y1="200" x2="654" y2="180"/>
  <text x="647" y="178" class="text-small" style="white-space: pre; font-size: 10px;">24</text>
  <text x="745" y="225" class="text-small" style="white-space: pre;">sel(ptr!=0)</text>
  <text x="725" y="265" class="text-small" style="white-space: pre;">1</text>
  <text x="725" y="285" class="text-small" style="white-space: pre;">0</text>
  <path class="bus" d="M 760 270 L 820 270"/>
  <text x="765" y="265" class="text-small" style="white-space: pre;">disp_data</text>
  <line class="wire" x1="780" y1="280" x2="790" y2="260"/>
  <text x="782" y="258" class="text-small" style="white-space: pre;">24</text>
  <path style="fill: none; stroke: rgb(0, 0, 0);" d="M 261.154 59.908 L 261.466 245.195 L 249.869 245.195"/>
  <path style="fill: none; stroke: rgb(0, 0, 0);" d="M 255.333 59.664 L 256.414 166.704 L 250.021 166.704"/>
  <path style="fill: none; stroke: rgb(0, 0, 0);" d="M 240.683 59.887 L 240.576 90.121"/>
</svg>